<?xml version="1.0"?>
<svg xmlns="http://www.w3.org/2000/svg" id="Layer_1" data-name="Layer 1" viewBox="0 0 32 32"><path d="M29.476,22.165A2.618,2.618,0,0,0,27,20.4a2.543,2.543,0,0,0-.877.152L20.489,22.44a2.585,2.585,0,0,0-.215-.584,2.485,2.485,0,0,0-1.5-1.244l-2.5-.874A13.126,13.126,0,0,0,11.936,19H7.816A2.993,2.993,0,0,0,2,20v6a3,3,0,0,0,5.753,1.186l2.319.355a20.259,20.259,0,0,1,2.405,1c2.055.934,3.362,1.5,4.173,1.5a6.353,6.353,0,0,0,2.7-.594L28,25.405A2.623,2.623,0,0,0,29.476,22.165ZM6,26a1,1,0,0,1-2,0V20a1,1,0,0,1,2,0Zm21.2-2.426-8.689,4.06a4.374,4.374,0,0,1-1.856.406A19.359,19.359,0,0,1,13.3,26.718a16.322,16.322,0,0,0-2.883-1.146L8,25.2V21h3.936a11.093,11.093,0,0,1,3.682.626l2.553.892a.539.539,0,0,1,.334.271.544.544,0,0,1,.036.427.545.545,0,0,1-.692.346l-4.533-1.511a1,1,0,0,0-.632,1.9l4.532,1.51a2.533,2.533,0,0,0,2.7-.718l6.869-2.3a.6.6,0,1,1,.411,1.136Z"/><path d="M9.693,18.036H22.307a3,3,0,0,0,2.549-4.581L18.55,3.281a3,3,0,0,0-5.1,0L7.144,13.455a3,3,0,0,0,2.549,4.581Zm-.85-3.527L15.149,4.334a1,1,0,0,1,1.7,0l6.306,10.175a1,1,0,0,1-.85,1.527H9.693a1,1,0,0,1-.85-1.527Z"/><path d="M16,12a1,1,0,0,0,1-1V7a1,1,0,0,0-2,0v4A1,1,0,0,0,16,12Z"/><path d="M15.08,14.38A.99.99,0,0,0,16,15a1,1,0,0,0,.71-1.71,1.01,1.01,0,0,0-.91-.27,1.068,1.068,0,0,0-.51.27A1.047,1.047,0,0,0,15,14,.883.883,0,0,0,15.08,14.38Z"/></svg>
