<svg height="512" viewBox="0 0 64 64" width="512" xmlns="http://www.w3.org/2000/svg"><g id="warning-arrow-direction-button-sign"><circle cx="32" cy="32" fill="#006df0" r="29"/><path d="m32 3a29 29 0 0 0 -20.506 49.506l41.012-41.012a28.909 28.909 0 0 0 -20.506-8.494z" fill="#2488ff"/><path d="m32 14-15 28h30z" fill="#ffcd00"/><g fill="#f1f2f2"><path d="m30 8.079a1 1 0 0 1 -.078-2c.688-.051 1.388-.079 2.078-.079a1 1 0 0 1 0 2c-.638 0-1.284.025-1.921.076z"/><path d="m7 33a1 1 0 0 1 -1-1 25.953 25.953 0 0 1 19.76-25.243 1 1 0 1 1 .48 1.943 23.959 23.959 0 0 0 -18.24 23.3 1 1 0 0 1 -1 1z"/><path d="m32 34a1 1 0 0 1 -1-1v-9a1 1 0 0 1 2 0v9a1 1 0 0 1 -1 1z"/><path d="m32 39a1 1 0 0 1 -1-1v-1a1 1 0 0 1 2 0v1a1 1 0 0 1 -1 1z"/></g></g></svg>