<svg id="Layer_1" enable-background="new 0 0 512 512" height="512" viewBox="0 0 512 512" width="512" xmlns="http://www.w3.org/2000/svg"><g clip-rule="evenodd" fill-rule="evenodd"><path d="m503.5 338.931c0-71.652-58.086-129.738-129.738-129.738-71.653 0-129.739 58.086-129.739 129.738 0 71.653 58.086 129.739 129.739 129.739 71.652 0 129.738-58.086 129.738-129.739zm-110.166-76.895-7.445 113.396c0 15.936-24.255 15.936-24.255 0l-7.445-113.396c-.001-25.721 39.145-25.721 39.145 0zm-19.572 141.867c8.619 0 15.606 6.987 15.606 15.606 0 8.62-6.987 15.606-15.606 15.606-8.62 0-15.606-6.986-15.606-15.606-.001-8.618 6.986-15.606 15.606-15.606z" fill="#eb3b48"/><path d="m318.754 203.942c16.975-6.925 35.543-10.75 55.008-10.75 5.783 0 11.484.348 17.093 1.003-4.954-13.6-11.496-26.437-19.404-38.285l25.194-25.194-50.188-50.19-25.195 25.195c-19.249-12.846-41.102-22.092-64.602-26.776v-35.615h-70.979v35.614c-23.499 4.687-45.355 13.928-64.603 26.774l-25.194-25.193-50.19 50.188 25.194 25.194c-12.845 19.249-22.091 41.102-26.776 64.603h-35.612v70.979h35.611c4.688 23.5 13.929 45.356 26.775 64.604l-25.191 25.192 50.188 50.19 25.193-25.193c19.249 12.845 41.103 22.091 64.604 26.774v35.612h70.979v-35.612c1.658-.331 3.309-.685 4.95-1.061-15.45-18.598-26.354-41.103-31.031-65.811-3.103.262-6.239.402-9.41.402-61.076 0-110.588-49.512-110.588-110.588s49.512-110.588 110.588-110.588c42.254.003 78.967 23.703 97.586 58.532z" fill="#fad808"/></g></svg>