<svg id="Layer_1" enable-background="new 0 0 512 512" viewBox="0 0 512 512" xmlns="http://www.w3.org/2000/svg" xmlns:xlink="http://www.w3.org/1999/xlink"><linearGradient id="SVGID_1_" gradientUnits="userSpaceOnUse" x1="123.877" x2="358.341" y1="413.861" y2="179.397"><stop offset="0" stop-color="#fc4422"/><stop offset="1" stop-color="#ffbb32"/></linearGradient><path clip-rule="evenodd" d="m133.934 145.345c24.911-13.769 56.218-4.75 69.987 20.161 13.764 24.901 4.751 56.225-20.161 69.987-24.841 13.724-56.164 4.837-69.987-20.156-13.74-24.857-4.691-56.252 20.161-69.992zm168.169 232.011c-4.588 0-8.318 3.735-8.318 8.323s3.73 8.319 8.318 8.319 8.319-3.73 8.319-8.319c-.001-4.588-3.731-8.323-8.319-8.323zm-14.552-152.487 7.1 99.507c.281 3.88 2.981 8 7.451 8 4.471 0 7.18-4.119 7.451-8l7.1-99.507c.849-12.024-16.268-19.251-25.71-9.12-2.422 2.591-3.621 5.83-3.392 9.12zm-4.696-81.338-148.574 257.337c-8.605 14.903 2.04 33.344 19.252 33.344h297.148c17.211 0 27.858-18.44 19.252-33.344l-148.579-257.337c-8.6-14.903-29.889-14.907-38.499 0zm19.248 51.377c16.87 0 31.73 13.966 30.509 31.094l-7.1 99.512c-.928 13.033-10.99 22.861-23.409 22.861s-22.481-9.828-23.409-22.861l-7.091-99.512c-1.23-17.12 13.635-31.094 30.5-31.094zm-24.318 190.771c0-13.413 10.91-24.323 24.318-24.323s24.318 10.91 24.318 24.323c0 13.408-10.91 24.318-24.318 24.318s-24.318-10.91-24.318-24.318zm-194.211-240.611c-7.353 12.199-20.77 19.599-35.022 19.322-3.979-.084-7.278 2.69-7.92 6.589-1.889 11.425-2.118 23.015-.68 34.45.487 3.927 3.721 6.823 7.681 6.889 30.732.518 49.436 34.281 33.508 60.624-2.048 3.388-1.308 7.662 1.753 10.174 8.918 7.297 18.849 13.272 29.529 17.748 3.637 1.528 7.761.178 9.799-3.206 12.483-20.745 40.406-25.714 59.269-10.558l71-122.977c-20.545-10.534-27.944-36.383-15.939-56.228 2.048-3.384 1.308-7.662-1.753-10.17-8.918-7.301-18.858-13.277-29.529-17.752-3.637-1.528-7.77-.178-9.799 3.205-15.818 26.354-54.387 25.626-69.228-1.303-1.912-3.468-5.989-4.968-9.692-3.566-10.788 4.086-20.93 9.691-30.139 16.66-3.149 2.39-4.054 6.636-2.132 10.099 6.914 12.472 6.642 27.797-.706 40z" fill="url(#SVGID_1_)" fill-rule="evenodd"/></svg>