<svg id="Layer_1" height="512" viewBox="0 0 512 512" width="512" xmlns="http://www.w3.org/2000/svg" data-name="Layer 1"><path d="m256 0c141.385 0 256 114.615 256 256s-114.615 256-256 256-256-114.615-256-256 114.615-256 256-256zm-87.832 340.694a243.549 243.549 0 0 0 -33.44 22.769v43.213c12.552-1.695 35.421-.377 69.435 3.993 26.158 2.414 69.819-37.723 93.293-59.3 3.067-2.833 5.973-5.519 8.56-7.831-1.852-1.409-9.1-2.648-16.1-1.048l-24.337 17.327a16.469 16.469 0 0 1 -3.993 2.8c-.064.029-.127.061-.192.09-20.472 9.326-42.861 15.177-68.476 17.885a5.417 5.417 0 1 1 -1.15-10.773c24.4-2.577 45.672-8.115 65.027-16.924a5.586 5.586 0 0 0 1.182-.814 2.752 2.752 0 0 1 .351-.348 5.248 5.248 0 0 0 .863-5.082 4.814 4.814 0 0 0 -3.928-3.274 165.162 165.162 0 0 0 -23.7.728c-14.5 1.185-29.48 2.412-57.778-4.238a7.29 7.29 0 0 0 -5.621.821zm-74.668 13.063v64.743h30.4v-64.743zm250.331-182.451a243.783 243.783 0 0 0 33.441-22.769v-43.213c-12.552 1.7-35.421.377-69.435-3.993-26.19-2.421-69.819 37.723-93.294 59.3-3.066 2.83-5.972 5.519-8.559 7.831 1.852 1.409 9.134 2.651 16.065 1.048l24.369-17.323a15.792 15.792 0 0 1 3.993-2.808c.063-.029.127-.061.191-.086 20.473-9.33 42.862-15.181 68.477-17.889a5.417 5.417 0 1 1 1.15 10.773c-24.4 2.58-45.673 8.116-65.028 16.924a4.967 4.967 0 0 0 -1.181.812 2.847 2.847 0 0 1 -.352.351 5.254 5.254 0 0 0 -.862 5.085 4.822 4.822 0 0 0 3.929 3.273 165.857 165.857 0 0 0 23.7-.731c14.5-1.185 29.48-2.411 57.777 4.238a7.285 7.285 0 0 0 5.621-.821zm74.674-13.063v-64.743h-30.405v64.743zm-157.076 146.194v-7.183a33.733 33.733 0 0 0 27.883-25.427c5.845-23.4-13.51-55.685-29.99-68.534a5.391 5.391 0 0 0 -6.644 0c-16.48 12.859-35.867 45.161-29.958 68.563a33.637 33.637 0 0 0 27.851 25.4v7.183a5.429 5.429 0 0 0 10.858 0zm0-18.218a22.493 22.493 0 0 0 17.375-17.03 25.477 25.477 0 0 0 .575-3.168l-17.95 14.779v5.417zm-23.986-44.443a62.993 62.993 0 0 0 -3.768 11.06l16.9 13.932v-14.168l-13.128-10.827zm40.882 11.057a65.711 65.711 0 0 0 -3.769-11.057l-13.127 10.824v14.165l16.9-13.935zm-8.847-20.894a93.8 93.8 0 0 0 -8.049-11.4v18.026l8.049-6.63zm-18.907-11.4a93.257 93.257 0 0 0 -8.049 11.4l8.049 6.63v-18.026zm-17.343 48.665a22.4 22.4 0 0 0 17.343 17.008v-5.412l-17.95-14.781a20.79 20.79 0 0 0 .607 3.187zm94.794-13.204a72.022 72.022 0 1 0 -72.022 72.024 72.114 72.114 0 0 0 72.022-72.024z" fill="#f44336" fill-rule="evenodd"/></svg>