<svg id="Layer_1" enable-background="new 0 0 512 512" height="512" viewBox="0 0 512 512" width="512" xmlns="http://www.w3.org/2000/svg"><path d="m415.7 96.6c-87.1-87-228.2-87-315.2 0-58.9 58.9-80.7 146.6-54.2 227.3 7.4 22.6 18.4 43.6 32.2 62.4 1.5 1.8 1.8 4.5.6 6.7l-48.1 87.7 94.5-43.6c1.8-.9 4.1-.7 5.9.5 88.4 61.1 208.1 50.4 284.3-25.8 87-87.1 87-228.2 0-315.2zm-217.6 27.7c-1.6 2.9-5.3 3.9-8.2 2.2-2.8-1.6-3.8-5.3-2.2-8.2 31.3-54.2 109.4-54.2 140.7 0 1.7 2.9.7 6.5-2.2 8.2s-6.5.7-8.2-2.2c-26.6-46.2-93.2-46.2-119.9 0zm-27.6 255.7c3.3 0 6 2.7 6 6s-2.7 6-6 6c-14.4 0-28.9-3.8-40.7-10.8-24.9-14.4-40.7-41.8-40.7-70.5 0-13.9 3.7-27.9 11-40.6 1.6-2.9 5.3-3.8 8.2-2.2s3.8 5.3 2.2 8.1c-12.5 21.7-12.5 47.6 0 69.3 6.3 10.9 15 19.6 25.3 25.5 10.3 6 22.1 9.2 34.7 9.2zm235.2-103.9c-1.6-2.9-.7-6.5 2.2-8.1s6.5-.7 8.2 2.2c14.6 25.3 14.8 56.1 0 81.2-14.7 25.4-41 40.6-70.4 40.6-3.3 0-6-2.7-6-6s2.7-6 6-6c25.1 0 47.4-12.9 60-34.6 12.6-21.7 12.6-47.6 0-69.3zm-33.8 19.5-87.6-151.8c-5.6-9.7-15-15.1-26.1-15.1-5.6 0-10.7 1.4-15.1 3.9-4.6 2.7-8.1 6.2-11 11.2l-87.6 151.8c-11.6 20.2 2.8 45.2 26.1 45.2h175.3c23.3.1 37.5-25.1 26-45.2zm-77.3-157.7 87.6 151.8c16.3 28.2-4 63.2-36.5 63.2h-175.2c-32.5 0-52.8-35-36.5-63.2l87.6-151.8c3.9-6.6 9.2-11.9 15.4-15.5 12.8-7.4 29.4-7.4 42.2 0 6.3 3.6 11.5 8.8 15.4 15.5zm-43.7 155.8v12.3c0 .5.5.8 1 .8h12.7c.5 0 1-.3 1-.8v-12.3c0-.5-.5-.8-1-.8h-12.7c-.5 0-1 .3-1 .8zm-12.1 12.3v-12.3c0-7.1 5.9-12.8 13-12.8h12.7c7.1 0 13 5.7 13 12.8v12.3c0 7.1-5.9 12.8-13 12.8h-12.7c-7 0-13-5.7-13-12.8zm10.9-101.1 6.2 48.9c.1 1 2.2.7 3.7.7.5 0 .9-.2 1-.7 3.9-31.3 6-44.2 6-73.5 0-.5-.5-.8-1-.8h-14.9c-.5 0-1 .3-1 .8zm-5.8 50.3-6.2-48.9-.1-1.5v-24.6c0-7.1 5.9-12.8 13-12.8h14.9c7.1 0 13 5.7 13 12.8v24.6l-.1 1.5-6 48.8c-.8 6.5-6.4 11.3-12.9 11.3-4.3 0-7.5 0-11.3-3.1-2.3-2-3.9-4.9-4.3-8.1z" fill="#00aeef"/></svg>