<svg id="Layer_1" enable-background="new 0 0 512 512" height="512" viewBox="0 0 512 512" width="512" xmlns="http://www.w3.org/2000/svg"><g clip-rule="evenodd" fill-rule="evenodd"><g><g><path d="m52.797 363.303 95.263-55.192c17.878-10.358 36.058-17.703 55.709-11.328 21.91 7.105 57.686 22.362 94.172 28.942 13.543 4.391 21.986 17.952 18.301 31.702-3.685 13.752-15.305 20.842-31.701 18.306l12.754 2.042c14.615 2.337 28.038.337 40.83-7.112l91.59-53.347c71.195-41.465 81.653 22.326 57.981 36.9l-166.212 102.348c-15.287 9.411-32.014 11.607-49.356 6.959l-120.56-32.304-44.648 25.778c-8.584 4.956-19.629 1.997-24.584-6.588l-36.104-62.534c-4.951-8.577-2.004-19.607 6.565-24.572z" fill="#f6dccd"/><path d="m314.07 363.132c-5.091 9.949-15.581 14.759-29.528 12.602-19.748-5.222-39.474-10.576-59.206-15.863-5.285-1.416-8.422-6.849-7.005-12.134 1.416-5.285 6.849-8.422 12.134-7.005z" fill="#f1cbbc"/><path d="m52.797 363.303 95.263-55.192c17.878-10.358 36.058-17.703 55.709-11.328 11.722 3.801 27.414 9.935 45.059 15.826l-184.538 106.544-18.058-31.278c-4.952-8.576-2.004-19.607 6.565-24.572z" fill="#f1cbbc"/><path d="m63.859 335.85 75.551 133.493c3.653 6.455 1.361 14.725-5.094 18.378l-25.698 14.544c-6.454 3.653-14.724 1.361-18.378-5.094l-75.551-133.494c-3.653-6.454-1.361-14.725 5.094-18.378l25.698-14.544c6.455-3.652 14.725-1.36 18.378 5.095z" fill="#d1d1d6"/><path d="m103.594 427.568 13.372 23.628 13.224 23.365c3.646 6.441 1.37 14.691-5.054 18.355l9.18-5.195c6.455-3.653 8.747-11.923 5.094-18.378l-13.268-23.444-26.642-47.074-26.672-47.127-8.969-15.848c-3.164-5.591-9.794-8.058-15.706-6.244l15.529 27.439 26.642 47.074 13.268 23.444z" fill="#b1b1b5"/></g><g><path d="m290.657 28.006 87.596 151.721c7.202 12.474 7.202 27.528 0 40.001-7.202 12.474-20.239 20.001-34.642 20.001h-175.192c-14.403 0-27.441-7.527-34.642-20.001-7.202-12.474-7.202-27.527 0-40.001l87.596-151.721c7.202-12.474 20.239-20.001 34.642-20.001s27.44 7.527 34.642 20.001z" fill="#fe646f"/><path d="m290.657 28.006 87.596 151.721c7.202 12.474 7.202 27.528 0 40.001-7.202 12.474-20.239 20.001-34.642 20.001h-10.407c14.404 0 27.44-7.527 34.642-20.001s7.202-27.527 0-40.001l-87.596-151.721c-6.323-10.952-17.144-18.089-29.439-19.668 1.709-.219 3.446-.333 5.204-.333 14.403 0 27.44 7.527 34.642 20.001z" fill="#fd4755"/><path d="m272.598 38.432 87.596 151.721c3.477 6.023 3.477 13.127 0 19.149-3.477 6.023-9.629 9.574-16.583 9.574h-175.192c-6.954 0-13.106-3.552-16.583-9.574s-3.477-13.126 0-19.149l87.596-151.721c3.477-6.023 9.629-9.574 16.583-9.574 6.954 0 13.106 3.551 16.583 9.574z" fill="#ffe177"/><path d="m178.826 218.876h-10.407c-6.954 0-13.106-3.551-16.583-9.574-3.477-6.022-3.477-13.127 0-19.149l87.596-151.721c3.477-6.023 9.629-9.574 16.583-9.574 1.799 0 3.544.238 5.203.695-4.755 1.308-8.802 4.415-11.38 8.879l-87.597 151.721c-3.477 6.023-3.477 13.127 0 19.149 3.478 6.023 9.63 9.574 16.585 9.574z" fill="#ffd064"/><path d="m256.015 160.593c-5.872.001-10.693-4.65-10.905-10.518l-2.758-76.382c-.111-3.072.917-5.757 3.051-7.969 2.134-2.213 4.78-3.336 7.854-3.336h5.517c3.074 0 5.72 1.124 7.854 3.336s3.161 4.897 3.051 7.969l-2.758 76.382c-.213 5.868-5.034 10.518-10.906 10.518z" fill="#fe646f"/><path d="m256.015 160.593c-1.157 0-2.272-.181-3.321-.516 4.272-1.364 7.415-5.29 7.585-10.002l2.759-76.382c.11-3.072-.917-5.757-3.051-7.969-2.003-2.076-4.457-3.194-7.292-3.324.185-.008.373-.013.562-.013h5.517c3.074 0 5.72 1.124 7.854 3.336s3.161 4.897 3.051 7.969l-2.758 76.382c-.213 5.869-5.034 10.519-10.906 10.519z" fill="#fd4755"/><path d="m256.015 176.798c7.392 0 13.384 5.992 13.384 13.384s-5.992 13.384-13.384 13.384-13.384-5.992-13.384-13.384 5.992-13.384 13.384-13.384z" fill="#fe646f"/><path d="m256.015 176.798c7.392 0 13.384 5.992 13.384 13.384s-5.992 13.384-13.384 13.384c-1.096 0-2.16-.133-3.179-.381 5.857-1.427 10.205-6.707 10.205-13.003s-4.348-11.576-10.205-13.003c1.019-.249 2.084-.381 3.179-.381z" fill="#fd4755"/></g></g><path d="m256.011 191.89c3.019 0 5.426 2.43 5.426 5.411 0 2.991-2.406 5.421-5.426 5.421-2.972 0-5.426-2.43-5.426-5.421.001-2.981 2.454-5.411 5.426-5.411zm0 26.83c11.795 0 21.419-9.61 21.419-21.419 0-11.813-9.624-21.41-21.419-21.41-11.794 0-21.419 9.596-21.419 21.41.001 11.809 9.625 21.419 21.419 21.419zm-4.434-144.279c.566-.552 1.038-.75 1.793-.75h5.284c.802 0 1.274.198 1.793.75.519.562.707 1.033.707 1.812l-2.642 73.31c-.094 1.326-1.132 2.378-2.5 2.378-1.321 0-2.406-1.052-2.453-2.378l-2.642-73.31c-.048-.774.141-1.251.66-1.812zm4.434 93.502c10.002 0 18.117-7.822 18.447-17.809l2.689-73.305c.142-5.128-1.604-9.799-5.189-13.488-3.538-3.699-8.162-5.647-13.304-5.647h-5.284c-5.142 0-9.719 1.948-13.304 5.647-3.538 3.689-5.331 8.35-5.142 13.488l2.642 73.305c.376 9.987 8.444 17.809 18.445 17.809zm-115.302 15.776c-5.803 10.02-5.803 21.99 0 32.01 5.803 10.021 16.135 16.003 27.693 16.003h175.219c11.559 0 21.938-5.982 27.693-16.003 5.803-10.02 5.803-21.99 0-32.01l-87.562-151.719c-5.803-10.02-16.182-15.998-27.741-15.998s-21.938 5.977-27.693 15.998zm27.693 64.011h175.219c17.361 0 32.883-8.969 41.564-24s8.681-32.977 0-48.008l-87.61-151.719c-8.681-15.031-24.202-24.004-41.564-24.004-17.361 0-32.883 8.973-41.564 24.004l-87.609 151.729c-8.681 15.022-8.681 32.968 0 47.999 8.681 15.03 24.25 23.999 41.564 23.999zm-112.944 113.213c.708 5.02-2.736 9.667-7.784 10.407-5.001.731-9.672-2.741-10.379-7.747-.755-5.02 2.736-9.681 7.737-10.412s9.671 2.741 10.426 7.752zm428.045-13.54-166.207 102.347c-13.21 8.129-27.693 10.172-43.074 6.039l-120.587-32.298c-2.029-.552-4.246-.26-6.086.802l-18.399 10.639-45.433-80.283 68.361-39.62c15.286-8.855 31.845-16.281 49.207-10.639 5.614 1.812 11.983 4.133 19.437 6.822 21.277 7.69 47.744 17.258 75.249 22.277 9.624 3.373 15.003 12.681 12.549 21.862-3.019 11.191-11.841 13.309-19.484 12.828-15.002-2.921-28.495-6.751-42.649-10.761-6.086-1.717-12.361-3.505-18.965-5.279-4.293-1.142-8.681 1.392-9.813 5.661-1.132 4.27 1.368 8.648 5.661 9.799 6.51 1.741 12.738 3.51 18.777 5.223 13.446 3.807 26.325 7.468 40.62 10.398.708.321 1.462.543 2.265.642.66.08 1.321.151 1.982.208 2.972.571 5.992 1.099 9.105 1.599 17.031 2.722 32.128.071 46.14-8.096l91.572-53.344c26.467-15.399 46.801-16.937 54.49-4.128 5.284 8.832 2.925 22.607-4.718 27.302zm-353.126 133.348c2.595-1.463 3.538-4.883 2.076-7.468l-75.532-133.49c-.755-1.26-1.934-2.18-3.349-2.571-.472-.141-.991-.212-1.463-.212-.943 0-1.84.241-2.689.712l-25.712 14.54c-2.548 1.458-3.538 4.888-2.028 7.468l75.531 133.5c1.51 2.632 4.859 3.562 7.454 2.071zm371.573-168.868c-4.812-7.992-24.391-31.671-76.24-1.481l-91.62 53.349c-4.671 2.732-9.483 4.652-14.484 5.77 1.887-2.949 3.35-6.298 4.34-10.021 4.671-17.409-5.661-35.586-23.542-41.389-.33-.109-.708-.189-1.038-.259-26.325-4.751-52.32-14.139-73.22-21.688-7.218-2.623-14.059-5.105-19.909-6.992-23.4-7.591-44.583 1.812-62.181 12.021l-68.219 39.53-5.001-8.813c-2.831-4.977-7.454-8.568-12.974-10.11-5.567-1.528-11.323-.83-16.323 1.991l-25.712 14.54c-10.285 5.841-13.917 18.98-8.114 29.293l75.579 133.485c3.915 6.973 11.228 10.903 18.729 10.903 3.586 0 7.218-.901 10.521-2.788l25.712-14.54c10.332-5.84 13.965-18.975 8.115-29.283l-9.341-16.54 15.663-9.058 117.378 31.449c6.605 1.774 13.116 2.652 19.437 2.652 12.691 0 24.768-3.51 36.185-10.53l166.208-102.338c15.099-9.302 19.864-32.726 10.051-49.153z"/></g></svg>